<svg xmlns="http://www.w3.org/2000/svg" xmlns:xlink="http://www.w3.org/1999/xlink" xmlns:svgjs="http://svgjs.com/svgjs" id="SvgjsSvg1001" version="1.1" viewBox="-121.85 130.04 531.69 27.91"><defs id="SvgjsDefs1002"/><g id="SvgjsG1008"><svg xmlns="http://www.w3.org/2000/svg" fill="none" viewBox="0 0 650 63" width="288" height="288"><rect width="650" height="63" fill="#070710" class="color070710 svgShape"/><mask id="a" style="mask-type:alpha" width="650" height="63" x="0" y="0" maskUnits="userSpaceOnUse"><rect width="650" height="63" fill="#d9d9d9" class="colorD9D9D9 svgShape"/></mask><g mask="url(#a)"><rect width="1200" height="61" fill="url(#b)" fill-opacity=".25" transform="matrix(1 0 0 -1 -275 62)"/><mask id="c" style="mask-type:alpha" width="1200" height="61" x="-275" y="1" maskUnits="userSpaceOnUse"><rect width="1200" height="61" fill="#d9d9d9" transform="matrix(1 0 0 -1 -275 62)" class="colorD9D9D9 svgShape"/></mask><g filter="url(#d)" mask="url(#c)"><path fill="url(#e)" fill-opacity=".5" d="M-287 -470C-287 -185.573 -56.4266 45 228 45H421C705.427 45 936 -185.573 936 -470V-470H-287V-470Z"/></g><path fill="url(#f)" fill-opacity=".8" fill-rule="evenodd" d="M565.25 22.6667C559.7 29.2206 551.548 33 542.96 33H105.417C97.2854 33 89.6287 29.1717 84.75 22.6667V22.6667C79.8713 16.1617 72.2146 12.3333 64.0833 12.3333L-269.833 12.3333C-272.687 12.3333 -275 10.0201 -275 7.16667V7.16667C-275 4.3132 -272.687 2 -269.833 2H919.833C922.687 2 925 4.3132 925 7.16667V7.16667C925 10.0201 922.687 12.3333 919.833 12.3333L587.54 12.3333C578.952 12.3333 570.8 16.1128 565.25 22.6667V22.6667Z" clip-rule="evenodd"/><path fill="#070710" fill-rule="evenodd" d="M565.25 21C559.69 27.3548 551.656 31 543.212 31H105.152C97.1708 31 89.6388 27.3082 84.75 21C79.8612 14.6918 72.3292 11 64.3484 11L-270 11C-270.008 11 -270.017 11 -270.025 10.9999H-275V6V0.999939H-245H895H925V6V10.9999H920.025L920 11L587.288 11C578.844 11 570.81 14.6452 565.25 21Z" clip-rule="evenodd" class="color070710 svgShape"/></g><defs><linearGradient id="b" x1="600" x2="600" y1="0" y2="61" gradientUnits="userSpaceOnUse"><stop stop-color="#f7a72e" stop-opacity="0" class="stopColorDD00AC svgShape"/><stop offset="1" stop-color="#f7a72e" stop-opacity=".15" class="stopColorDD00AC svgShape"/></linearGradient><linearGradient id="e" x1="325.697" x2="299.576" y1="45" y2="-468.733" gradientUnits="userSpaceOnUse"><stop stop-color="#e89b26" stop-opacity=".06" class="stopColorD601AB svgShape"/><stop offset="1" stop-color="#e89b26" class="stopColorD601AB svgShape"/></linearGradient><linearGradient id="f" x1="-275" x2="925" y1="1.999" y2="1.999" gradientUnits="userSpaceOnUse"><stop stop-color="#8e3e05" stop-opacity="0" class="stopColor432372 svgShape"/><stop offset=".339" stop-color="#e06a1b" stop-opacity=".698" class="stopColor410093 svgShape"/><stop offset=".5" stop-color="#f7a72e" stop-opacity=".6" class="stopColorDD00AC svgShape"/><stop offset=".667" stop-color="#e06a1b" stop-opacity=".76" class="stopColor410093 svgShape"/><stop offset="1" stop-color="#8e3e05" stop-opacity="0" class="stopColor432372 svgShape"/></linearGradient><filter id="d" width="1272" height="564" x="-311.5" y="-494.5" color-interpolation-filters="sRGB" filterUnits="userSpaceOnUse"><feFlood flood-opacity="0" result="BackgroundImageFix"/><feBlend in="SourceGraphic" in2="BackgroundImageFix" result="shape"/><feGaussianBlur result="effect1_foregroundBlur_61_19" stdDeviation="12.25"/></filter></defs></svg></g></svg>