<svg xmlns="http://www.w3.org/2000/svg" xmlns:xlink="http://www.w3.org/1999/xlink" xmlns:svgjs="http://svgjs.com/svgjs" id="SvgjsSvg1001" version="1.1" viewBox="0 136.68 288 14.64"><defs id="SvgjsDefs1002"/><g id="SvgjsG1008"><svg xmlns="http://www.w3.org/2000/svg" fill="none" viewBox="0 0 1200 61" width="288" height="288"><rect width="1200" height="61" fill="url(#a)" fill-opacity=".25" transform="matrix(1 0 0 -1 0 61)"/><mask id="b" style="mask-type:alpha" width="1200" height="61" x="0" y="0" maskUnits="userSpaceOnUse"><rect width="1200" height="61" fill="#d9d9d9" transform="matrix(1 0 0 -1 0 61)" class="colorD9D9D9 svgShape"/></mask><g filter="url(#c)" mask="url(#b)"><path fill="url(#d)" fill-opacity=".5" d="M-12 -471C-12 -186.573 218.573 44 503 44H696C980.427 44 1211 -186.573 1211 -471V-471H-12V-471Z"/></g><path fill="url(#e)" fill-opacity=".8" fill-rule="evenodd" d="M840.25 21.6667C834.7 28.2206 826.548 32 817.96 32H380.417C372.285 32 364.629 28.1717 359.75 21.6667V21.6667C354.871 15.1617 347.215 11.3333 339.083 11.3333L5.16667 11.3333C2.3132 11.3333 0 9.02014 0 6.16667V6.16667C0 3.3132 2.31318 1 5.16665 1H1194.83C1197.69 1 1200 3.3132 1200 6.16667V6.16667C1200 9.02014 1197.69 11.3333 1194.83 11.3333L862.54 11.3333C853.952 11.3333 845.8 15.1128 840.25 21.6667V21.6667Z" clip-rule="evenodd"/><path fill="#070711" fill-rule="evenodd" d="M840.25 20.0001C834.69 26.3549 826.656 30.0001 818.212 30.0001H380.152C372.171 30.0001 364.639 26.3082 359.75 20.0001C354.861 13.6919 347.329 10.0001 339.348 10.0001L5 10.0001C4.99154 10.0001 4.98309 10 4.97464 10H0V5.00006V0H30H1170H1200V5.00006V10H1195.03L1195 10.0001L862.288 10.0001C853.844 10.0001 845.81 13.6452 840.25 20.0001Z" clip-rule="evenodd" class="color070711 svgShape"/><defs><linearGradient id="a" x1="600" x2="600" y1="0" y2="61" gradientUnits="userSpaceOnUse"><stop stop-color="#f7a72e" stop-opacity="0" class="stopColorDD00AC svgShape"/><stop offset="1" stop-color="#f7a72e" stop-opacity=".15" class="stopColorDD00AC svgShape"/></linearGradient><linearGradient id="d" x1="600.697" x2="574.576" y1="44" y2="-469.733" gradientUnits="userSpaceOnUse"><stop stop-color="#e89b26" stop-opacity=".06" class="stopColorD601AB svgShape"/><stop offset="1" stop-color="#e89b26" class="stopColorD601AB svgShape"/></linearGradient><linearGradient id="e" x1="0" x2="1200" y1=".999" y2=".999" gradientUnits="userSpaceOnUse"><stop stop-color="#8e3e05" stop-opacity="0" class="stopColor432372 svgShape"/><stop offset=".339" stop-color="#e06a1b" stop-opacity=".698" class="stopColor410093 svgShape"/><stop offset=".5" stop-color="#f7a72e" stop-opacity=".6" class="stopColorDD00AC svgShape"/><stop offset=".667" stop-color="#e06a1b" stop-opacity=".76" class="stopColor410093 svgShape"/><stop offset="1" stop-color="#8e3e05" stop-opacity="0" class="stopColor432372 svgShape"/></linearGradient><filter id="c" width="1272" height="564" x="-36.5" y="-495.5" color-interpolation-filters="sRGB" filterUnits="userSpaceOnUse"><feFlood flood-opacity="0" result="BackgroundImageFix"/><feBlend in="SourceGraphic" in2="BackgroundImageFix" result="shape"/><feGaussianBlur result="effect1_foregroundBlur_6_142" stdDeviation="12.25"/></filter></defs></svg></g></svg>